<svg width="256" height="256" viewBox="-16 -16 32 32" xmlns="http://www.w3.org/2000/svg">
  <g transform="translate(-16, -16)">
    <circle cx="8" cy="8" r="6" fill="#006400"/>
    <circle cx="12" cy="12" r="3" fill="#006400" opacity="0.7"/>
    <circle cx="14" cy="14" r="1.5" fill="#006400" opacity="0.4"/>

    <rect x="20" y="5" width="8" height="8" rx="2" fill="#228B22" transform="rotate(15 24 9)"/>
    <rect x="16" y="10" width="5" height="5" rx="1" fill="#228B22" opacity="0.7" transform="rotate(15 18.5 12.5)"/>
    <rect x="14" y="13" width="3" height="3" rx="1" fill="#228B22" opacity="0.4" transform="rotate(15 15.5 14.5)"/>

    <path d="M 5 25 L 11 20 L -1 20 Z" fill="#32CD32" transform="rotate(-10 5 22.5)"/>
    <path d="M 10 21 L 14 18 L 6 18 Z" fill="#32CD32" opacity="0.7" transform="rotate(-10 10 19.5)"/>
    <path d="M 13 19 L 16 17 L 10 17 Z" fill="#32CD32" opacity="0.4" transform="rotate(-10 13 18)"/>

    <circle cx="24" cy="24" r="5" fill="#8A2BE2"/>
    <circle cx="19" cy="19" r="3" fill="#8A2BE2" opacity="0.7"/>
    <circle cx="16.5" cy="16.5" r="1.5" fill="#8A2BE2" opacity="0.4"/>
  </g>
</svg>
